<svg xmlns="http://www.w3.org/2000/svg" viewBox="0 0 1600 900" role="img" aria-label="수상 기록 대표 이미지">
  <defs>
    <linearGradient id="desk" x1="0" y1="0" x2="1" y2="1">
      <stop offset="0" stop-color="#b9a78f"/>
      <stop offset="1" stop-color="#6f604c"/>
    </linearGradient>
    <filter id="shadow" x="-20%" y="-20%" width="140%" height="140%">
      <feDropShadow dx="0" dy="18" stdDeviation="14" flood-color="#000" flood-opacity=".28"/>
    </filter>
  </defs>
  <rect width="1600" height="900" fill="url(#desk)"/>
  <g opacity=".18">
    <path d="M0 120h1600M0 300h1600M0 480h1600M0 660h1600M0 840h1600" stroke="#fff"/>
    <path d="M160 0v900M420 0v900M680 0v900M940 0v900M1200 0v900M1460 0v900" stroke="#222"/>
  </g>
  <g filter="url(#shadow)">
    <g transform="translate(130 155) rotate(-13)">
      <rect width="330" height="430" rx="10" fill="#f4eee0"/>
      <rect x="30" y="34" width="270" height="358" fill="none" stroke="#57412a" stroke-width="5"/>
      <text x="165" y="105" text-anchor="middle" font-size="42" font-family="serif" fill="#171717">상 장</text>
      <line x1="75" y1="160" x2="255" y2="160" stroke="#947243" stroke-width="6"/>
      <line x1="75" y1="215" x2="255" y2="215" stroke="#b7a98d" stroke-width="5"/>
      <line x1="75" y1="260" x2="255" y2="260" stroke="#b7a98d" stroke-width="5"/>
      <circle cx="250" cy="330" r="34" fill="#c44" opacity=".72"/>
    </g>
    <g transform="translate(410 80) rotate(7)">
      <rect width="350" height="460" rx="10" fill="#fff8e8"/>
      <rect x="28" y="30" width="294" height="392" fill="none" stroke="#80662e" stroke-width="5"/>
      <text x="175" y="112" text-anchor="middle" font-size="46" font-family="serif" fill="#1c1712">CERTIFICATE</text>
      <line x1="80" y1="175" x2="270" y2="175" stroke="#d8b94e" stroke-width="7"/>
      <line x1="80" y1="230" x2="270" y2="230" stroke="#c8b88e" stroke-width="5"/>
      <line x1="80" y1="280" x2="270" y2="280" stroke="#c8b88e" stroke-width="5"/>
      <circle cx="268" cy="358" r="38" fill="#244c8f" opacity=".78"/>
    </g>
    <g transform="translate(780 120) rotate(-5)">
      <rect width="360" height="470" rx="10" fill="#efe8d5"/>
      <rect x="36" y="38" width="288" height="388" fill="none" stroke="#3b3528" stroke-width="5"/>
      <text x="180" y="118" text-anchor="middle" font-size="48" font-family="serif" fill="#161616">수 상</text>
      <line x1="82" y1="180" x2="278" y2="180" stroke="#8f7a42" stroke-width="7"/>
      <line x1="82" y1="236" x2="278" y2="236" stroke="#b6aa92" stroke-width="5"/>
      <line x1="82" y1="288" x2="278" y2="288" stroke="#b6aa92" stroke-width="5"/>
      <circle cx="278" cy="360" r="37" fill="#b53056" opacity=".72"/>
    </g>
    <g transform="translate(1125 170) rotate(10)">
      <rect width="330" height="430" rx="10" fill="#f6edcb"/>
      <rect x="30" y="34" width="270" height="358" fill="none" stroke="#7f6735" stroke-width="5"/>
      <text x="165" y="105" text-anchor="middle" font-size="42" font-family="serif" fill="#171717">AWARD</text>
      <line x1="75" y1="160" x2="255" y2="160" stroke="#d7b44b" stroke-width="6"/>
      <line x1="75" y1="215" x2="255" y2="215" stroke="#b7a98d" stroke-width="5"/>
      <line x1="75" y1="260" x2="255" y2="260" stroke="#b7a98d" stroke-width="5"/>
      <circle cx="250" cy="330" r="34" fill="#b23838" opacity=".75"/>
    </g>
    <g transform="translate(300 440) rotate(4)">
      <rect width="430" height="290" rx="10" fill="#f7f4ee"/>
      <rect x="28" y="30" width="374" height="230" fill="none" stroke="#4b4b4b" stroke-width="4"/>
      <text x="215" y="115" text-anchor="middle" font-size="40" font-family="serif" fill="#222">Kwon Yonghyun</text>
      <line x1="90" y1="168" x2="340" y2="168" stroke="#9eb7c8" stroke-width="7"/>
      <circle cx="350" cy="215" r="32" fill="#d04c4c" opacity=".7"/>
    </g>
    <g transform="translate(830 480) rotate(-8)">
      <rect width="430" height="290" rx="10" fill="#efe2a8"/>
      <rect x="28" y="30" width="374" height="230" fill="none" stroke="#7a6225" stroke-width="4"/>
      <text x="215" y="115" text-anchor="middle" font-size="40" font-family="serif" fill="#222">3D Printer</text>
      <line x1="90" y1="168" x2="340" y2="168" stroke="#9b873d" stroke-width="7"/>
      <circle cx="350" cy="215" r="32" fill="#344d9a" opacity=".7"/>
    </g>
  </g>
</svg>
